<?xml version="1.0" standalone="no"?>
<!DOCTYPE svg PUBLIC "-//W3C//DTD SVG 20010904//EN"
 "http://www.w3.org/TR/2001/REC-SVG-20010904/DTD/svg10.dtd">
<svg version="1.0" xmlns="http://www.w3.org/2000/svg"
 width="64.000000pt" height="64.000000pt" viewBox="0 0 64.000000 64.000000"
 preserveAspectRatio="xMidYMid meet">

<g transform="translate(0.000000,64.000000) scale(0.100000,-0.100000)"
fill="#000000" stroke="none">
<path d="M122 604 c-11 -12 -10 -17 2 -30 15 -14 17 -14 32 0 14 14 14 18 0
31 -18 18 -18 18 -34 -1z"/>
<path d="M250 586 c0 -19 -4 -38 -10 -41 -15 -9 -12 -41 5 -55 8 -7 15 -25 15
-40 0 -22 -6 -29 -27 -33 -29 -6 -40 2 -74 54 -9 13 -20 21 -24 17 -4 -3 5
-24 19 -45 l27 -38 -50 -14 c-44 -12 -52 -19 -76 -63 -22 -41 -25 -52 -14 -59
8 -5 20 -9 27 -9 8 0 12 -23 12 -79 l0 -79 122 -41 c118 -41 122 -42 159 -27
21 9 57 14 79 12 32 -3 40 -1 40 12 0 12 3 13 11 5 9 -9 19 -5 40 15 26 24 29
34 29 86 0 49 -2 57 -16 52 -9 -3 -28 -9 -42 -13 -14 -3 -37 -12 -51 -19 -14
-8 -33 -14 -41 -14 -8 0 -24 -7 -34 -15 -36 -27 -46 -19 -46 38 l1 52 16 -30
c8 -16 17 -31 18 -33 3 -3 236 86 243 93 2 2 -1 13 -8 24 -13 26 -34 28 -26 3
5 -16 -9 -25 -87 -55 -51 -20 -98 -37 -105 -37 -12 0 -49 66 -41 74 2 2 50 20
106 39 71 25 103 32 106 24 2 -7 7 -9 11 -6 16 15 -10 38 -55 49 -27 7 -49 15
-49 19 0 4 13 25 30 47 16 21 30 42 30 47 0 18 -19 3 -52 -42 -31 -41 -41 -48
-62 -44 -21 4 -26 11 -26 33 0 15 7 33 15 40 19 16 19 44 0 60 -21 18 -29 6
-13 -20 11 -18 11 -22 -4 -31 -10 -6 -18 -21 -18 -34 0 -22 -4 -25 -40 -25
-36 0 -40 3 -40 25 0 13 -8 28 -17 34 -15 8 -15 13 -6 33 7 12 14 34 16 48 4
26 6 23 23 -35 5 -16 16 -30 24 -30 8 0 19 14 24 30 18 60 18 61 23 48 7 -20
23 -15 23 7 0 11 -6 20 -14 20 -21 0 -46 -28 -46 -51 0 -10 -4 -19 -10 -19 -5
0 -10 9 -10 19 0 23 -25 51 -46 51 -9 0 -14 -11 -14 -34z m42 -191 c-2 -15 0
-25 7 -25 6 0 11 7 11 15 0 18 12 19 28 3 17 -17 28 -2 12 17 -10 12 -10 15 2
15 13 0 38 -58 38 -89 0 -19 -32 -12 -37 9 -8 30 -24 24 -21 -7 4 -35 -25 -39
-30 -5 -4 24 -22 31 -22 7 0 -20 -4 -19 -86 9 -63 22 -67 24 -42 31 16 4 35 4
44 1 10 -4 22 1 31 11 13 16 14 15 8 -10 -8 -41 17 -30 29 11 11 38 36 44 28
7z m127 -25 c4 0 11 4 17 9 5 4 24 4 44 -2 l35 -10 -47 -15 c-53 -17 -55 -17
-61 18 -2 14 -2 19 0 13 3 -7 8 -13 12 -13z m-119 -91 c0 -6 -7 -24 -16 -41
-16 -31 -20 -32 -81 -13 -14 4 -23 3 -23 -3 0 -9 90 -46 95 -39 1 1 10 16 18
32 l16 30 1 -52 c0 -29 -3 -53 -7 -53 -24 0 -203 77 -203 88 0 10 8 12 30 7
48 -11 34 9 -20 29 -27 10 -50 20 -50 22 0 2 7 19 16 38 l17 34 103 -35 c57
-19 104 -39 104 -44z m-90 -126 c107 -42 105 -41 97 -49 -7 -7 -207 68 -207
79 0 12 10 9 110 -30z m330 27 c0 -5 -4 -10 -10 -10 -5 0 -10 5 -10 10 0 6 5
10 10 10 6 0 10 -4 10 -10z m-40 -20 c0 -11 -6 -20 -14 -20 -21 0 -31 21 -15
31 22 14 29 11 29 -11z m-58 -32 c-9 -9 -15 -9 -24 0 -10 10 -10 15 2 22 20
12 38 -6 22 -22z m-230 -15 c53 -21 98 -44 98 -50 0 -18 -14 -16 -115 20 -62
22 -91 37 -93 50 -5 23 -3 23 110 -20z m324 10 c-10 -10 -19 5 -10 18 6 11 8
11 12 0 2 -7 1 -15 -2 -18z m-156 -8 c-29 -17 -50 -19 -50 -6 0 10 23 18 55
19 17 1 17 -1 -5 -13z m125 -5 c3 -5 -1 -10 -9 -10 -9 0 -16 5 -16 10 0 6 4
10 9 10 6 0 13 -4 16 -10z m-49 -27 c-10 -10 -19 5 -10 18 6 11 8 11 12 0 2
-7 1 -15 -2 -18z m-39 1 c2 -6 -14 -16 -35 -22 -49 -15 -52 -15 -52 2 0 7 15
18 33 23 36 12 49 11 54 -3z"/>
<path d="M472 594 c-11 -12 -10 -17 2 -30 15 -14 17 -14 32 0 14 14 14 18 0
31 -18 18 -18 18 -34 -1z"/>
<path d="M32 554 c-11 -12 -10 -17 2 -30 15 -14 17 -14 32 0 14 14 14 18 0 31
-18 18 -18 18 -34 -1z"/>
<path d="M440 540 c0 -5 5 -10 10 -10 6 0 10 5 10 10 0 6 -4 10 -10 10 -5 0
-10 -4 -10 -10z"/>
<path d="M530 540 c0 -5 5 -10 10 -10 6 0 10 5 10 10 0 6 -4 10 -10 10 -5 0
-10 -4 -10 -10z"/>
<path d="M572 534 c-11 -12 -10 -17 2 -30 15 -14 17 -14 32 0 14 14 14 18 0
31 -18 18 -18 18 -34 -1z"/>
<path d="M180 530 c0 -5 5 -10 10 -10 6 0 10 5 10 10 0 6 -4 10 -10 10 -5 0
-10 -4 -10 -10z"/>
<path d="M110 510 c0 -5 5 -10 10 -10 6 0 10 5 10 10 0 6 -4 10 -10 10 -5 0
-10 -4 -10 -10z"/>
<path d="M426 484 c-6 -24 -2 -43 8 -33 11 10 17 59 8 59 -5 0 -13 -12 -16
-26z"/>
<path d="M302 488 c-19 -19 -14 -25 18 -25 17 0 30 3 30 7 0 8 -22 30 -30 30
-3 0 -11 -5 -18 -12z"/>
<path d="M195 463 c8 -31 13 -39 20 -31 9 9 -6 58 -17 58 -6 0 -7 -11 -3 -27z"/>
<path d="M550 480 c0 -5 5 -10 10 -10 6 0 10 5 10 10 0 6 -4 10 -10 10 -5 0
-10 -4 -10 -10z"/>
<path d="M50 470 c0 -5 5 -10 10 -10 6 0 10 5 10 10 0 6 -4 10 -10 10 -5 0
-10 -4 -10 -10z"/>
<path d="M505 440 c-10 -11 -15 -23 -12 -27 8 -7 47 25 47 39 0 14 -16 9 -35
-12z"/>
<path d="M80 442 c0 -14 39 -46 47 -39 3 4 -2 16 -12 27 -19 21 -35 26 -35 12z"/>
</g>
</svg>
